# xmcd
#
# Track frame offsets: 
#        150
#        25936
#        43891
#        64714
#
# Disc length: 1202 seconds
#
# Revision: 1
# Processed by: cddbd v1.5.2PL0 Copyright (c) Steve Scherf et al.
# Submitted via: ExactAudioCopy v1.3
#
DISCID=3004b004
DTITLE=miwa - あなたがここにいて抱きしめることができるなら
DYEAR=2015
DGENRE=JPop
TTITLE0=あなたがここにいて抱きしめることができるなら
TTITLE1=B.O.Y
TTITLE2=始まりは終わりじゃない 〜ON MY WAY ver.〜
TTITLE3=あなたがここにいて抱きしめることができるなら 〜instrumentnal〜
EXTD=
EXTT0=
EXTT1=
EXTT2=
EXTT3=
PLAYORDER=
